<svg width="590" height="140" viewBox="0 0 590 140" fill="none" xmlns="http://www.w3.org/2000/svg">
<path d="M102.089 118.95C93.8887 122.05 84.5887 119.75 78.7887 113.15L49.0887 77.5497V77.4497C48.6887 76.9497 48.3887 76.4497 48.1887 75.8497C46.6887 71.9497 48.5887 67.5497 52.4887 66.0497C52.5887 66.0497 52.5887 66.0497 52.6887 65.9497C54.3887 65.2497 56.3887 65.2497 58.0887 65.9497L99.0887 79.9497C105.889 81.3497 111.489 86.0497 114.089 92.5497C118.189 103.15 112.889 114.95 102.089 118.95ZM86.0887 22.0497C95.4887 19.0497 105.489 24.0497 108.589 33.1497C111.689 42.2497 106.589 52.1497 97.1887 55.1497C87.8887 58.1497 77.7887 53.1497 74.6887 44.0497C71.6887 34.9497 76.7887 25.0497 86.0887 22.0497ZM142.889 33.8497C141.789 32.2497 140.089 31.1497 138.189 30.6497L131.289 28.8497C131.189 28.5497 131.089 28.1497 130.989 27.8497C123.789 6.54972 100.389 -4.95028 78.5887 2.04972C67.7887 5.44972 58.9887 13.1497 54.0887 23.3497L41.6887 43.2497L12.0887 31.5497C10.1887 30.7497 7.9887 30.6497 5.9887 31.2497C1.4887 32.6497 -1.0113 37.3497 0.3887 41.8497C0.3887 41.9497 0.3887 41.9497 0.3887 42.0497C0.5887 42.6497 0.8887 43.2497 1.2887 43.8497V43.9497L32.1887 84.9497L32.2887 85.0497L32.3887 85.1497L54.6887 116.15C63.4887 134.45 85.0887 143.95 105.189 137.45C126.989 130.45 138.789 107.55 131.589 86.2497C129.389 79.8497 125.689 74.0497 120.689 69.4497C126.789 63.6497 130.889 56.0497 132.489 47.8497L139.189 45.9497V45.8497C143.289 44.3497 145.489 39.8497 143.989 35.7497C143.689 35.1497 143.389 34.4497 142.889 33.8497ZM204.589 121.85H217.989C221.889 121.85 223.889 119.95 223.889 116.15V98.6497C223.889 94.8497 221.889 92.9497 217.989 92.9497H204.589V121.85ZM204.589 77.6497H217.989C219.889 77.6497 220.989 76.5497 221.989 75.5497C222.989 74.6497 223.889 73.8497 223.889 72.0497V54.4497C223.889 50.6497 221.889 48.7497 217.989 48.7497H204.589V77.6497ZM188.589 132.85V37.6497C188.589 36.3497 189.289 35.7497 190.589 35.7497H220.989C226.989 35.7497 231.489 37.2497 234.689 40.2497C237.789 43.2497 239.389 47.7497 239.389 53.5497V76.3497C239.389 78.6497 238.689 80.5497 237.189 82.1497C235.689 83.7497 230.989 84.7497 228.689 85.1497L231.489 85.3497C233.789 85.7497 235.689 86.6497 237.189 88.3497C238.689 89.9497 239.389 91.9497 239.389 94.1497V116.95C239.389 122.85 237.789 127.25 234.689 130.25C231.589 133.25 226.989 134.75 221.089 134.75H190.689C190.189 134.75 189.589 134.55 189.189 134.25C188.789 133.95 188.589 133.45 188.589 132.85ZM256.389 50.0497C256.389 48.7497 257.089 48.0497 258.389 48.0497H271.589C272.189 48.0497 272.689 48.2497 273.089 48.6497C273.489 49.0497 273.689 49.5497 273.589 50.1497V132.95C273.589 133.55 273.389 134.05 272.989 134.45C272.589 134.85 272.089 135.05 271.489 134.95H258.289C256.889 134.95 256.289 134.25 256.289 132.95C256.389 132.85 256.389 50.0497 256.389 50.0497ZM305.189 93.5497H319.789C323.689 93.5497 325.689 91.6497 325.689 87.8497V66.2497C325.689 62.4497 323.689 60.5497 319.789 60.5497H305.189V93.5497ZM289.989 132.85V50.0497C289.989 49.5497 290.189 48.9497 290.589 48.5497C290.989 48.1497 291.489 47.9497 292.089 47.9497H322.589C328.589 47.9497 333.089 49.4497 336.189 52.4497C339.289 55.4497 340.789 59.9497 340.789 65.7497V90.6497C340.789 97.8497 338.389 102.95 333.689 105.75L340.289 132.35C340.689 133.85 340.089 134.55 338.589 134.55H326.089C324.889 134.55 324.189 133.95 323.889 132.75L317.789 105.65H306.489V132.55C306.489 133.15 306.289 133.65 305.889 134.05C305.489 134.45 304.989 134.65 304.389 134.55H291.889C291.389 134.55 290.789 134.35 290.389 134.05C290.189 133.95 289.989 133.45 289.989 132.85ZM373.089 122.75H386.589C390.489 122.75 392.489 120.85 392.489 117.05V66.1497C392.489 62.2497 390.489 60.2497 386.589 60.2497H373.089V122.75ZM357.089 132.85V50.0497C357.089 48.7497 357.789 48.0497 359.089 48.0497H389.689C395.689 48.0497 400.189 49.5497 403.289 52.6497C406.389 55.7497 407.889 60.1497 407.889 66.0497V117.05C407.889 122.95 406.289 127.35 403.289 130.35C400.189 133.35 395.689 134.85 389.689 134.85H359.189C357.789 134.85 357.089 134.25 357.089 132.85ZM424.889 132.85V37.5497C424.889 36.9497 425.089 36.4497 425.389 36.1497C425.789 35.7497 426.289 35.6497 426.789 35.6497H472.089C473.489 35.6497 474.089 36.3497 474.089 37.5497V47.2497C474.089 48.6497 473.389 49.3497 471.989 49.3497H440.189V76.8497H464.489C465.889 76.8497 466.589 77.5497 466.589 78.9497V89.8497C466.589 91.2497 465.889 91.9497 464.489 91.9497H440.189V121.25H470.689C472.889 121.25 473.389 121.35 473.689 121.65C473.989 121.95 474.089 122.45 474.089 123.15V132.85C474.089 134.15 473.389 134.85 472.089 134.85H426.789C426.289 134.85 425.789 134.65 425.389 134.35C424.989 133.95 424.789 133.35 424.889 132.85ZM479.089 50.9497C478.889 50.6497 478.789 50.2497 478.789 49.8497C478.789 49.5497 478.889 49.1497 479.089 48.9497C479.489 48.3497 480.089 48.0497 481.089 48.0497H493.789C495.189 48.0497 496.189 48.7497 496.689 50.0497L510.989 84.6497L525.189 50.0497C525.689 48.7497 526.689 48.0497 528.089 48.0497H540.789C541.789 48.0497 542.389 48.3497 542.789 48.8497C542.989 49.1497 543.089 49.4497 543.089 49.8497C543.089 50.2497 542.989 50.5497 542.889 50.9497L519.689 102.35V132.35C519.689 134.05 518.889 134.85 517.189 134.85H504.989C503.289 134.85 502.489 134.05 502.489 132.35V102.35L479.089 50.9497ZM550.689 132.85V50.0497C550.689 49.4497 550.889 48.9497 551.189 48.5497C551.589 48.1497 552.089 47.9497 552.589 47.9497H597.889C599.289 47.9497 599.989 48.6497 599.989 49.9497V59.6497C599.989 61.0497 599.289 61.7497 597.889 61.7497H566.589V83.5497H590.489C591.889 83.5497 592.489 84.2497 592.489 85.6497V96.5497C592.489 97.9497 591.789 98.6497 590.489 98.6497H566.589V121.25H597.889C598.689 121.25 599.189 121.35 599.489 121.65C599.789 121.95 599.889 122.45 599.889 123.15V132.85C599.889 134.15 599.189 134.85 597.889 134.85H552.589C552.089 134.85 551.589 134.65 551.189 134.35C550.889 133.95 550.689 133.45 550.689 132.85Z" fill="#000000"/>
</svg>
