<?xml version="1.0" encoding="UTF-8"?>
<!DOCTYPE svg PUBLIC "-//W3C//DTD SVG 1.1//EN" "http://www.w3.org/Graphics/SVG/1.1/DTD/svg11.dtd">
<!-- Creator: CorelDRAW 2018 (64 Bit Versão de avaliação) -->
<svg xmlns="http://www.w3.org/2000/svg" xml:space="preserve" width="17.5559mm" height="17.4754mm" version="1.1" style="shape-rendering:geometricPrecision; text-rendering:geometricPrecision; image-rendering:optimizeQuality; fill-rule:evenodd; clip-rule:evenodd"
viewBox="0 0 140.01 139.37"
 xmlns:xlink="http://www.w3.org/1999/xlink">
 <defs>
  <style type="text/css">
   <![CDATA[
    .fil1 {fill:#000000}
    .fil0 {fill:#000000;fill-rule:nonzero}
   ]]>
  </style>
 </defs>
 <g id="Camada_x0020_1">
  <metadata id="CorelCorpID_0Corel-Layer"/>
  <g id="_2796877986784">
   <path class="fil0" d="M24.26 67.44c0,15.75 3.73,27.81 11.23,36.15 7.5,8.34 18.24,12.51 32.17,12.51 13.84,0 24.44,-4.17 31.81,-12.51 7.37,-8.34 11.05,-20.4 11.05,-36.15 0,-15.63 -3.69,-27.65 -11.05,-35.99 -7.37,-8.34 -17.97,-12.51 -31.81,-12.51 -14.02,0 -24.75,4.17 -32.21,12.47 -7.46,8.3 -11.19,20.32 -11.19,36.03zm-24.26 0c0,-21.25 5.89,-37.81 17.7,-49.67 11.82,-11.86 28.35,-17.77 49.69,-17.77 21.43,0 38.05,5.91 49.87,17.73 11.86,11.82 17.79,28.38 17.79,49.71 0,21.37 -5.88,37.97 -17.7,49.83 -11.82,11.86 -28.35,17.77 -49.69,17.77 -21.43,0 -38.05,-5.91 -49.87,-17.73 -11.86,-11.82 -17.79,-28.42 -17.79,-49.87z"/>
   <polygon class="fil1" points="140.01,128.4 88.63,90.1 79.34,101.07 130.52,139.37 "/>
  </g>
 </g>
</svg>
